<?xml version="1.0" encoding="utf-8"?>
<!-- Generator: Adobe Illustrator 24.1.2, SVG Export Plug-In . SVG Version: 6.00 Build 0)  -->
<svg version="1.1" id="Layer_1" xmlns="http://www.w3.org/2000/svg" xmlns:xlink="http://www.w3.org/1999/xlink" x="0px" y="0px"
	 viewBox="0 0 720 210.7" style="enable-background:new 0 0 720 210.7;" xml:space="preserve">
<style type="text/css">
	.st0{fill:#138709;}
</style>
<g>
	<g>
		<path class="st0" d="M195.3,37.6h25.3v22.7h-25.3V37.6z M195.3,75.1h25.3v95.2h-25.3V75.1z"/>
		<path class="st0" d="M258.8,90.3h0.6c5.8-10.8,12.3-16.3,23.4-16.3c2.8,0,4.5,0.2,5.9,0.7v22.1h-0.6c-16.5-1.7-28.4,7.1-28.4,27.1
			v46.4h-25.3V75.1h24.3L258.8,90.3L258.8,90.3z"/>
		<path class="st0" d="M290.4,122.7c0-28.2,19.1-50.1,47-50.1c30.6,0,47,23.4,47,57.4h-69.1c1.9,14.7,10,23.8,24.3,23.8
			c9.8,0,15.6-4.5,18.4-11.7h24.9c-3.5,16.9-18.6,31.2-43.1,31.2C308.2,173.2,290.4,151.1,290.4,122.7z M315.6,112.4H358
			c-0.7-12.1-8.7-20.4-20.2-20.4C324.4,92,317.9,100,315.6,112.4z"/>
		<path class="st0" d="M387.8,139.6h23.4c1.7,10.9,9.5,15.8,20.8,15.8c11.1,0,17.5-4.3,17.5-10.9c0-9.1-12.1-10-25.1-12.6
			c-17.1-3.3-33.8-8-33.8-28.8c0-20.6,17.1-30.4,38.8-30.4c25.1,0,39,12.4,40.9,31.6h-22.8c-1.1-10.2-7.6-13.9-18.4-13.9
			c-9.8,0-16.3,3.7-16.3,10.6c0,8.2,12.6,8.9,26.2,11.7c16,3.3,33.6,7.8,33.6,30.1c0,19.1-16.3,30.6-40.1,30.6
			C404.7,173.2,389.3,159.8,387.8,139.6z"/>
		<path class="st0" d="M474.1,75.1h13.2V45.4H512v29.7h16.3v16.7H512v50.5c0,7.1,3.9,9.5,9.5,9.5c3.2,0,7.4-0.2,7.4-0.2v18.6
			c0,0-5.8,0.4-15.8,0.4c-12.3,0-25.8-4.8-25.8-22.8V91.8h-13.2L474.1,75.1L474.1,75.1z"/>
		<path class="st0" d="M538.1,37.6h25.3v22.7h-25.3V37.6z M538.1,75.1h25.3v95.2h-25.3V75.1z"/>
		<path class="st0" d="M570.2,75.1h13v-8.5c0-23.2,18-31.4,42.3-28.8v19.5c-11.9-0.6-17.1,0.9-17.1,10.8v7.1h17.1v17.4h-17.1v77.8
			h-25.3V92.6h-13V75.1z"/>
		<path class="st0" d="M638.3,181.7h8.9c10,0,14.1-5.2,14.1-13c0-5.2-1.9-11.3-7.2-25.8l-25.6-67.8H655l14.1,42.9
			c3,8.7,6.1,20.8,6.1,20.8h0.4c0,0,2.6-12.1,5.6-20.8l13.4-42.9H720l-33.2,97.7c-7.2,21.2-14.3,28.8-33.6,28.8h-14.8L638.3,181.7
			L638.3,181.7z"/>
	</g>
	<g>
		<rect y="46.9" class="st0" width="32" height="163.6"/>
		<rect class="st0" width="32" height="32"/>
		<path class="st0" d="M96.3,144.6c20-15.2,31.8-39,31.8-64.3c0-21.4-8.3-41.6-23.3-56.8C89.8,8.4,69.9,0,48.8,0h-1.8v32h1.8
			C75,32,96.4,53.7,96.4,80.3c0,26.6-21.4,48.3-47.7,48.3h-1.8v32.1h1.8c12.7,0,24.7,5,33.7,14.1c9,9.1,14,21.2,14,34.1v1.9h31.7
			v-1.9c0-21.4-8.3-41.6-23.2-56.8C102.2,149.4,99.3,146.9,96.3,144.6z"/>
	</g>
</g>
</svg>
